# xmcd
#
# Track frame offsets:
#	150
#	22389
#	47163
#	76005
#	105484
#	124591
#	161129
#	186461
#	211106
#
# Disc length: 3011 seconds
#
# Revision: 1
# Processed by: cddbd v1.5.2PL0 Copyright (c) Steve Scherf et al.
# Submitted via: audiograbber 1.83.01
#
DISCID=750bc109
DTITLE=Bernhoft, Jarle - 1: Man @ Kampen Bistro Oslo
DYEAR=2010
DGENRE=Soul
TTITLE0=Ever since I was a little kid
TTITLE1=On time
TTITLE2=Sunday
TTITLE3=Fly Away
TTITLE4=Streetlights
TTITLE5=Tickly foot (Improvised)
TTITLE6=He ain't heavy, he's my brother
TTITLE7=So many faces
TTITLE8=A bad place to reside
EXTD=
EXTT0=
EXTT1=
EXTT2=
EXTT3=
EXTT4=
EXTT5=
EXTT6=
EXTT7=
EXTT8=
PLAYORDER=
